# xmcd
#
# Track frame offsets: 
#        150
#        18615
#        35101
#        50280
#        67166
#        82579
#        94880
#        118006
#        135969
#        152657
#        163875
#
# Disc length: 2516 seconds
#
# Revision: 0
# Processed by: cddbd v1.5.2PL0 Copyright (c) Steve Scherf et al.
# Submitted via: ExactAudioCopy v1.0b1
#
DISCID=8c09d20b
DTITLE=Rosanne Cash - Rosanne Cash
DYEAR=1978
DGENRE=Country/Rock
TTITLE0=Baby, We Better Start Turnin'
TTITLE1=Take Me, Take Me
TTITLE2=So Fine
TTITLE3=Thoughts From The Train
TTITLE4=Understand Your Man
TTITLE5=I'm Ragged, But I'm Right
TTITLE6=Anybody's Darlin'
TTITLE7=Feelin' Blue
TTITLE8=We Can Do What We Like
TTITLE9=Baby, We Can Be Friends
TTITLE10=Can I Still Believe In You
EXTD=
EXTT0=
EXTT1=
EXTT2=
EXTT3=
EXTT4=
EXTT5=
EXTT6=
EXTT7=
EXTT8=
EXTT9=
EXTT10=
PLAYORDER=
